<?xml version="1.0" encoding="UTF-8" standalone="no"?>
<svg
   xmlns:dc="http://purl.org/dc/elements/1.1/"
   xmlns:cc="http://creativecommons.org/ns#"
   xmlns:rdf="http://www.w3.org/1999/02/22-rdf-syntax-ns#"
   xmlns:svg="http://www.w3.org/2000/svg"
   xmlns="http://www.w3.org/2000/svg"
   xmlns:sodipodi="http://sodipodi.sourceforge.net/DTD/sodipodi-0.dtd"
   xmlns:inkscape="http://www.inkscape.org/namespaces/inkscape"
   version="1.2"
   id="svg2"
   inkscape:version="0.91 r13725"
   sodipodi:docname="plot.svg"
   width="206.95753"
   height="156.03">
  <metadata
     id="metadata183">
    <rdf:RDF>
      <cc:Work
         rdf:about="">
        <dc:format>image/svg+xml</dc:format>
        <dc:type
           rdf:resource="http://purl.org/dc/dcmitype/StillImage" />
        <dc:title>pyqtgraph SVG export</dc:title>
      </cc:Work>
    </rdf:RDF>
  </metadata>
  <sodipodi:namedview
     pagecolor="#ffffff"
     bordercolor="#666666"
     borderopacity="1"
     objecttolerance="10"
     gridtolerance="10"
     guidetolerance="10"
     inkscape:pageopacity="0"
     inkscape:pageshadow="2"
     inkscape:window-width="1366"
     inkscape:window-height="744"
     id="namedview181"
     showgrid="false"
     fit-margin-top="0"
     fit-margin-left="0"
     fit-margin-right="0"
     fit-margin-bottom="0"
     inkscape:zoom="0.834386"
     inkscape:cx="121.40536"
     inkscape:cy="29.41023"
     inkscape:window-x="0"
     inkscape:window-y="24"
     inkscape:window-maximized="1"
     inkscape:current-layer="g4311" />
  <title
     id="title4">pyqtgraph SVG export</title>
  <desc
     id="desc6">Generated with Qt and pyqtgraph</desc>
  <defs
     id="defs8" />
  <g
     id="PlotItem_1"
     transform="translate(-218.00308,-223.38856)"
     style="fill:none;fill-rule:evenodd;stroke:#000000;stroke-width:1;stroke-linecap:square;stroke-linejoin:bevel">
    <g
       id="ViewBox_1"
       style="fill:none;fill-rule:evenodd;stroke:#000000;stroke-width:1;stroke-linecap:square;stroke-linejoin:bevel">
      <g
         font-size="14.6667"
         font-style="normal"
         font-weight="400"
         id="g128"
         style="font-style:normal;font-weight:400;font-size:14.66670036px;font-family:Ubuntu;fill:none;stroke:none">
        <path
           d="m 60.8125,1 558.188,0 0,378 -558.188,0 0,-378"
           vector-effect="non-scaling-stroke"
           id="path130"
           inkscape:connector-curvature="0"
           style="fill-rule:evenodd" />
      </g>
      <clipPath
         id="ViewBox_1_clip">
        <path
           d="M 60.8125,1 619,1 l 0,378 -558.1875,0 0,-378"
           vector-effect="non-scaling-stroke"
           id="path133"
           inkscape:connector-curvature="0"
           style="fill-rule:evenodd" />
      </clipPath>
      <g
         clip-path="url(#ViewBox_1_clip)"
         id="g135">
        <g
           id="ChildGroup_1"
           style="fill:none;fill-rule:evenodd;stroke:#000000;stroke-width:1;stroke-linecap:square;stroke-linejoin:bevel">
          <g
             id="g4311"
             transform="matrix(1.0005,0,0,0.41068992,-0.15725185,223.56174)">
            <g
               style="fill:#ececec;fill-rule:evenodd;stroke:#ff0000;stroke-width:1;stroke-linecap:square;stroke-linejoin:bevel"
               id="PlotCurveItem_1">
              <g
                 style="font-style:normal;font-weight:400;font-size:14.66670036px;font-family:Ubuntu;fill:#ececec;fill-opacity:0.39215698;stroke:#ff0000"
                 id="g139"
                 font-weight="400"
                 font-style="normal"
                 font-size="14.6667">
                <path
                   style="fill:#ececec;fill-rule:evenodd;stroke:#ff0000"
                   inkscape:connector-curvature="0"
                   id="path141"
                   vector-effect="non-scaling-stroke"
                   d="m 218.55131,379 0,-1.89424 0.49604,0 0,1.89424 0.49603,0 0,-4.7356 0.49603,0 0,-2.84135 0.49604,0 0,5.68271 0.49603,0 0,-5.68271 0.49604,0 0,3.78847 0.49603,0 0,-2.84135 0.49603,0 0,-1.89424 0.49604,0 0,2.84136 0.49603,0 0,0.94711 0.49604,0 0,-4.73559 0.49603,0 0,3.78848 0.49603,0 0,0 0.49604,0 0,-2.84136 0.49603,0 0,4.73559 0.49604,0 0,-3.78847 0.49603,0 0,1.89424 0.49603,0 0,-3.78848 0.49604,0 0,0.94712 0.49603,0 0,-0.94712 0.49604,0 0,0.94712 0.49603,0 0,0 0.49603,0 0,-5.68272 0.49604,0 0,7.57696 0.49603,0 0,0.94712 0.49604,0 0,-0.94712 0.49603,0 0,0 0.49603,0 0,-2.84136 0.49604,0 0,0.94712 0.49603,0 0,-1.89424 0.49604,0 0,-0.94712 0.49603,0 0,-3.78847 0.49603,0 0,8.52407 0.49604,0 0,-7.57696 0.49603,0 0,2.84136 0.49604,0 0,3.78848 0.49603,0 0,-7.57695 0.49603,0 0,1.89423 0.49604,0 0,1.89424 0.49603,0 0,-4.73559 0.49604,0 0,-2.84136 0.49603,0 0,-1.89424 0.49603,0 0,-1.89424 0.49604,0 0,-2.84135 0.49603,0 0,6.62983 0.49604,0 0,-3.78848 0.49603,0 0,3.78848 0.49603,0 0,-6.62983 0.49604,0 0,-10.41831 0.49603,0 0,3.78847 0.49604,0 0,0.94712 0.49603,0 0,-13.25966 0.49603,0 0,0.94712 0.49604,0 0,-7.57696 0.49603,0 0,-9.47119 0.49604,0 0,6.62984 0.49603,0 0,0 0.49603,0 0,-14.20679 0.49604,0 0,-19.8895 0.49603,0 0,-11.36543 0.49604,0 0,3.78848 0.49603,0 0,-23.67797 0.49603,0 0,-10.41831 0.49604,0 0,-2.84136 0.49603,0 0,-33.14917 0.49604,0 0,-8.52407 0.49603,0 0,-18.94238 0.49603,0 0,-5.68271 0.49604,0 0,8.52407 0.49603,0 0,-6.62983 0.49604,0 0,79.55799 0.49603,0 0,4.7356 0.49603,0 0,35.99052 0.49604,0 0,15.15391 0.49603,0 0,15.1539 0.49604,0 0,-12.31255 0.49603,0 0,8.52407 0.49603,0 0,5.68272 0.49604,0 0,6.62983 0.49603,0 0,-6.62983 0.49604,0 0,17.04814 0.49603,0 0,-5.68271 0.49603,0 0,3.78847 0.49604,0 0,12.31255 0.49603,0 0,-5.68272 0.49604,0 0,9.47119 0.49603,0 0,-6.62983 0.49603,0 0,10.41831 0.49604,0 0,2.84136 0.49603,0 0,-3.78848 0.49604,0 0,0 0.49603,0 0,2.84136 0.49603,0 0,-1.89424 0.49604,0 0,0.94712 0.49603,0 0,1.89424 0.49604,0 0,2.84135 0.49603,0 0,-9.47119 0.49603,0 0,0.94712 0.49604,0 0,1.89424 0.49603,0 0,3.78848 0.49604,0 0,-11.36543 0.49603,0 0,7.57695 0.49603,0 0,-0.94712 0.49604,0 0,-1.89424 0.49603,0 0,3.78848 0.49604,0 0,-2.84136 0.49603,0 0,0 0.49603,0 0,0.94712 0.49604,0 0,-0.94712 0.49603,0 0,-8.52407 0.49604,0 0,11.36543 0.49603,0 0,-6.62983 0.49603,0 0,-0.94712 0.49604,0 0,-9.47119 0.49603,0 0,5.68271 0.49604,0 0,-4.73559 0.49603,0 0,5.68271 0.49603,0 0,-12.31255 0.49604,0 0,8.52407 0.49603,0 0,-15.1539 0.49604,0 0,9.47119 0.49603,0 0,-14.20678 0.49603,0 0,2.84135 0.49604,0 0,4.7356 0.49603,0 0,-24.6251 0.49604,0 0,0.94712 0.49603,0 0,-10.41831 0.49603,0 0,-3.78847 0.49604,0 0,1.89424 0.49603,0 0,7.57695 0.49604,0 0,-14.20679 0.49603,0 0,-15.1539 0.49603,0 0,-3.78848 0.49604,0 0,-14.20678 0.49603,0 0,12.31254 0.49604,0 0,-37.88476 0.49603,0 0,-6.62983 0.49603,0 0,-13.25966 0.49604,0 0,-3.78848 0.49603,0 0,-32.20205 0.49604,0 0,-5.68271 0.49603,0 0,11.36543 0.49603,0 0,-18.94238 0.49604,0 0,0.94712 0.49603,0 0,-1.89424 0.49604,0 0,27.46645 0.49603,0 0,67.24545 0.49603,0 0,46.40883 0.49604,0 0,30.30781 0.49603,0 0,11.36543 0.49604,0 0,2.84135 0.49603,0 0,-0.94712 0.49603,0 0,4.7356 0.49604,0 0,2.84136 0.49603,0 0,-8.52408 0.49604,0 0,-8.52407 0.49603,0 0,6.62984 0.49603,0 0,-16.10103 0.49604,0 0,4.7356 0.49603,0 0,-15.15391 0.49604,0 0,11.36543 0.49603,0 0,0 0.49603,0 0,-2.84135 0.49604,0 0,-11.36543 0.49603,0 0,-17.04814 0.49604,0 0,0 0.49603,0 0,-10.41831 0.49603,0 0,8.52407 0.49604,0 0,-12.31255 0.49603,0 0,20.83662 0.49604,0 0,7.57695 0.49603,0 0,-9.47119 0.49603,0 0,2.84136 0.49604,0 0,-42.62036 0.49603,0 0,9.47119 0.49604,0 0,-7.57695 0.49603,0 0,-17.04814 0.49603,0 0,-18.94238 0.49604,0 0,-21.78374 0.49603,0 0,-34.09628 0.49604,0 0,0 0.49603,0 0,0 0.49603,0 0,-67.24545 0.49604,0 0,37.88476 0.49603,0 0,16.10102 0.49604,0 0,116.49564 0.49603,0 0,55.88002 0.49603,0 0,26.51933 0.49604,0 0,2.84136 0.49603,0 0,5.68271 0.49604,0 0,-6.62983 0.49603,0 0,5.68271 0.49603,0 0,0.94712 0.49604,0 0,-5.68271 0.49603,0 0,-0.94712 0.49604,0 0,0 0.49603,0 0,2.84136 0.49603,0 0,1.89423 0.49604,0 0,0.94712 0.49603,0 0,-2.84135 0.49604,0 0,-0.94712 0.49603,0 0,2.84135 0.49603,0 0,0 0.49604,0 0,-3.78847 0.49603,0 0,-2.84136 0.49604,0 0,-1.89424 0.49603,0 0,3.78848 0.49603,0 0,-1.89424 0.49604,0 0,-5.68271 0.49603,0 0,-1.89424 0.49604,0 0,0.94712 0.49603,0 0,7.57695 0.49603,0 0,-11.36543 0.49604,0 0,-2.84135 0.49603,0 0,7.57695 0.49604,0 0,-12.31255 0.49603,0 0,-1.89424 0.49603,0 0,4.7356 0.49604,0 0,-3.78848 0.49603,0 0,-1.89424 0.49604,0 0,-6.62983 0.49603,0 0,-7.57695 0.49603,0 0,-12.31255 0.49604,0 0,0 0.49603,0 0,-12.31255 0.49604,0 0,-10.4183 0.49603,0 0,-12.31255 0.49603,0 0,-17.99526 0.49604,0 0,-41.67324 0.49603,0 0,-18.94238 0.49604,0 0,0.94712 0.49603,0 0,-38.83188 0.49603,0 0,-17.99526 0.49604,0 0,-28.41357 0.49603,0 0,-55.88002 0.49604,0 0,-2.841357 0.49603,0 0,28.41357 0.49603,0 0,105.130207 0.49604,0 0,87.13495 0.49603,0 0,63.45697 0.49604,0 0,23.67798 0.49603,0 0,5.68271 0.49603,0 0,0.94712 0.49604,0 0,0 0.49603,0 0,0.94712 0.49604,0 0,-1.89424 0.49603,0 0,1.89424 0.49603,0 0,-0.94712 0.49604,0 0,0 0.49603,0 0,-0.94712 0.49604,0 0,1.89424 0.49603,0 0,-2.84136 0.49603,0 0,0.94712 0.49604,0 0,0 0.49603,0 0,0 0.49604,0 0,1.89424 0.49603,0 0,0 0.49603,0 0,-0.94712 0.49604,0 0,0 0.49603,0 0,0.94712 0.49604,0 0,-0.94712 0.49603,0 0,0.94712 0.49603,0 0,0 0.49604,0 0,-0.94712 0.49603,0 0,-2.84136 0.49604,0 0,1.89424 0.49603,0 0,0 0.49603,0 0,1.89424 0.49604,0 0,0 0.49603,0 0,0 0.49604,0 0,-0.94712 0.49603,0 0,-2.84136 0.49603,0 0,1.89424 0.49604,0 0,0 0.49603,0 0,0.94712 0.49604,0 0,-0.94712 0.49603,0 0,-1.89424 0.49603,0 0,1.89424 0.49604,0 0,-0.94712 0.49603,0 0,0 0.49604,0 0,0.94712 0.49603,0 0,0 0.49603,0 0,-4.73559 0.49604,0 0,1.89423 0.49603,0 0,-5.68271 0.49604,0 0,8.52407 0.49603,0 0,-5.68271 0.49603,0 0,0.94712 0.49604,0 0,1.89423 0.49603,0 0,0.94712 0.49604,0 0,-1.89423 0.49603,0 0,3.78847 0.49603,0 0,-1.89424 0.49604,0 0,-1.89423 0.49603,0 0,-2.84136 0.49604,0 0,1.89424 0.49603,0 0,0.94712 0.49603,0 0,-0.94712 0.49604,0 0,2.84135 0.49603,0 0,-3.78847 0.49604,0 0,-0.94712 0.49603,0 0,0 0.49603,0 0,-2.84136 0.49604,0 0,-1.89424 0.49603,0 0,-4.73559 0.49604,0 0,-0.94712 0.49603,0 0,-2.84136 0.49603,0 0,6.62984 0.49604,0 0,-9.47119 0.49603,0 0,-1.89424 0.49604,0 0,2.84135 0.49603,0 0,-12.31254 0.49603,0 0,-8.52407 0.49604,0 0,7.57695 0.49603,0 0,-10.41831 0.49604,0 0,-27.46645 0.49603,0 0,-17.04814 0.49603,0 0,-2.84136 0.49604,0 0,-15.1539 0.49603,0 0,-34.09629 0.49604,0 0,-19.8895 0.49603,0 0,-35.99052 0.49603,0 0,-33.14916 0.49604,0 0,-46.408835 0.49603,0 0,-33.149165 0.49604,0 0,-30.307808 0.49603,0 0,51.144426 0.49603,0 0,62.509852 0.49604,0 0,107.02445 0.49603,0 0,89.9763 0.49604,0 0,17.99526 0.49603,0 0,5.68272 0.49603,0 0,0.94712 0.49604,0 0,3.78847 0.49603,0 0,-4.73559 0.49604,0 0,1.89424 0.49603,0 0,-0.94712 0.49603,0 0,4.73559 0.49604,0 0,0 0.49603,0 0,0 0.49604,0 0,0 0.49603,0 0,1.89424 0.49603,0 0,0 0.49604,0 0,-0.94712 0.49603,0 0,0.94712 0.49604,0 0,0 0.49603,0 0,0.94712 0.49603,0 0,-0.94712 0.49604,0 0,0 0.49603,0 0,0.94712 0.49604,0 0,0 0.49603,0 0,-0.94712 0.49603,0 0,0.94712 0.49604,0 0,-1.89424 0.49603,0 0,1.89424 0.49604,0 0,0 0.49603,0 0,-0.94712 0.49603,0 0,0.94712 0.49604,0 0,0 0.49603,0 0,0 0.49604,0 0,0 0.49603,0 0,0 0.49603,0 0,0 0.49604,0 0,0 0.49603,0 0,0 0.49604,0 0,0 0.49603,0 0,0 0.49603,0 0,0 0.49604,0 0,0 0.49603,0 0,0 0.49604,0 0,0 0.49603,0 0,0 0.49603,0 0,0 0.49604,0 0,0 0.49603,0 0,0 0.49604,0 0,0 0.49603,0 0,0 0.49603,0 0,0 0.49604,0 0,0 0.49603,0 0,0 0.49604,0 0,0 0.49603,0 0,0 0.49603,0 0,0 0.49604,0 0,0 0.49603,0 0,0 0.49604,0 0,0 0.49603,0 0,0 0.49603,0 0,0 0.49604,0 0,0 0.49603,0 0,0 0.49604,0 0,0 0.49603,0 0,0 0.49603,0 0,0 0.49604,0 0,0 0.49603,0 0,0 0.49604,0 0,0 0.49603,0 0,0 0.49603,0 0,0 0.49604,0 0,0 0.49603,0 0,0 0.49604,0 0,0 0.49603,0 0,0 0.49603,0 0,0 0.49604,0 0,0 0.49603,0 0,0 0.49604,0 0,0 0.49603,0 0,0 0.49603,0 0,0 0.49604,0 0,0 0.49603,0 0,0 0.49604,0 0,0 0.49603,0 0,0 0.49603,0 0,0 0.49604,0 0,0 0.49603,0 0,0"
                   sodipodi:nodetypes="cccccccccccccccccccccccccccccccccccccccccccccccccccccccccccccccccccccccccccccccccccccccccccccccccccccccccccccccccccccccccccccccccccccccccccccccccccccccccccccccccccccccccccccccccccccccccccccccccccccccccccccccccccccccccccccccccccccccccccccccccccccccccccccccccccccccccccccccccccccccccccccccccccccccccccccccccccccccccccccccccccccccccccccccccccccccccccccccccccccccccccccccccccccccccccccccccccccccccccccccccccccccccccccccccccccccccccccccccccccccccccccccccccccccccccccccccccccccccccccccccccccccccccccccccccccccccccccccccccccccccccccccccccccccccccccccccccccccccccccccccccccccccccccccccccccccccccccccccccccccccccccccccccccccccccccccccccccccccccccccccccccccccccccccccccccccccccccccccccccccccccccccccccccccccccccccccccccccccccccccccccccccccccccccccccccccccccccccccccccccccccccccccccccccccccccccccccccccccccccccccccccccccccccccccccccccccccccccc" />
              </g>
              <g
                 style="font-style:normal;font-weight:400;font-size:14.66670036px;font-family:Ubuntu;fill:#ececec;stroke:#ff0000;stroke-width:1;stroke-linecap:square;stroke-linejoin:bevel;stroke-opacity:1"
                 id="g143"
                 font-weight="400"
                 font-style="normal"
                 font-size="14.6667">
                <path
                   style="fill:#ececec;fill-rule:evenodd;stroke:#ff0000"
                   inkscape:connector-curvature="0"
                   id="path145"
                   vector-effect="non-scaling-stroke"
                   d="m 239.38474,360.05762 0,-1.89424 0.49603,0 0,-1.89424 0.49604,0 0,-2.84135 0.49603,0 0,6.62983 0.49604,0 0,-3.78848 0.49603,0 0,3.78848 0.49603,0 0,-6.62983 0.49604,0 0,-10.41831 0.49603,0 0,3.78847 0.49604,0 0,0.94712 0.49603,0 0,-13.25966 0.49603,0 0,0.94712 0.49604,0 0,-7.57696 0.49603,0 0,-9.47119 0.49604,0 0,6.62984 0.49603,0 0,0 0.49603,0 0,-14.20679 0.49604,0 0,-19.8895 0.49603,0 0,-11.36543 0.49604,0 0,3.78848 0.49603,0 0,-23.67797 0.49603,0 0,-10.41831 0.49604,0 0,-2.84136 0.49603,0 0,-33.14917 0.49604,0 0,-8.52407 0.49603,0 0,-18.94238 0.49603,0 0,-5.68271 0.49604,0 0,8.52407 0.49603,0 0,-6.62983 0.49604,0 0,79.55799 0.49603,0 0,4.7356 0.49603,0 0,35.99052 0.49604,0 0,15.15391 0.49603,0 0,15.1539 0.49604,0 0,-12.31255 0.49603,0 0,8.52407 0.49603,0 0,5.68272 0.49604,0 0,6.62983 0.49603,0 0,-6.62983 0.49604,0 0,17.04814 0.49603,0 0,-5.68271 0.49603,0 0,3.78847 0.49604,0 0,12.31255 0.49603,0 0,-5.68272 0.49604,0 0,9.47119 0.49603,0 0,-6.62983 0.49603,0 0,10.41831 0.49604,0 0,2.84136 0.49603,0 0,-3.78848 0.49604,0 0,0 0.49603,0 0,2.84136 0.49603,0 0,-1.89424 0.49604,0 0,0.94712 0.49603,0 0,1.89424 0.49604,0 0,2.84135 0.49603,0 0,-9.47119 0.49603,0 0,0.94712 0.49604,0 0,1.89424 0.49603,0 0,3.78848 0.49604,0 0,-11.36543 0.49603,0 0,7.57695 0.49603,0 0,-0.94712 0.49604,0 0,-1.89424 0.49603,0 0,3.78848 0.49604,0 0,-2.84136 0.49603,0 0,0 0.49603,0 0,0.94712 0.49604,0 0,-0.94712 0.49603,0 0,-8.52407 0.49604,0 0,11.36543 0.49603,0 0,-6.62983 0.49603,0 0,-0.94712 0.49604,0 0,-9.47119 0.49603,0 0,5.68271 0.49604,0 0,-4.73559 0.49603,0 0,5.68271 0.49603,0 0,-12.31255 0.49604,0 0,8.52407 0.49603,0 0,-15.1539 0.49604,0 0,9.47119 0.49603,0 0,-14.20678 0.49603,0 0,2.84135 0.49604,0 0,4.7356 0.49603,0 0,-24.6251 0.49604,0 0,0.94712 0.49603,0 0,-10.41831 0.49603,0 0,-3.78847 0.49604,0 0,1.89424 0.49603,0 0,7.57695 0.49604,0 0,-14.20679 0.49603,0 0,-15.1539 0.49603,0 0,-3.78848 0.49604,0 0,-14.20678 0.49603,0 0,12.31254 0.49604,0 0,-37.88476 0.49603,0 0,-6.62983 0.49603,0 0,-13.25966 0.49604,0 0,-3.78848 0.49603,0 0,-32.20205 0.49604,0 0,-5.68271 0.49603,0 0,11.36543 0.49603,0 0,-18.94238 0.49604,0 0,0.94712 0.49603,0 0,-1.89424 0.49604,0 0,27.46645 0.49603,0 0,67.24545 0.49603,0 0,46.40883 0.49604,0 0,30.30781 0.49603,0 0,11.36543 0.49604,0 0,2.84135 0.49603,0 0,-0.94712 0.49603,0 0,4.7356 0.49604,0 0,2.84136 0.49603,0 0,-8.52408 0.49604,0 0,-8.52407 0.49603,0 0,6.62984 0.49603,0 0,-16.10103 0.49604,0 0,4.7356 0.49603,0 0,-15.15391 0.49604,0 0,11.36543 0.49603,0 0,0 0.49603,0 0,-2.84135 0.49604,0 0,-11.36543 0.49603,0 0,-17.04814 0.49604,0 0,0 0.49603,0 0,-10.41831 0.49603,0 0,8.52407 0.49604,0 0,-12.31255 0.49603,0 0,20.83662 0.49604,0 0,7.57695 0.49603,0 0,-9.47119 0.49603,0 0,2.84136 0.49604,0 0,-42.62036 0.49603,0 0,9.47119 0.49604,0 0,-7.57695 0.49603,0 0,-17.04814 0.49603,0 0,-18.94238 0.49604,0 0,-21.78374 0.49603,0 0,-34.09628 0.49604,0 0,0 0.49603,0 0,0 0.49603,0 0,-67.24545 0.49604,0 0,37.88476 0.49603,0 0,16.10102 0.49604,0 0,116.49564 0.49603,0 0,55.88002 0.49603,0 0,26.51933 0.49604,0 0,2.84136 0.49603,0 0,5.68271 0.49604,0 0,-6.62983 0.49603,0 0,5.68271 0.49603,0 0,0.94712 0.49604,0 0,-5.68271 0.49603,0 0,-0.94712 0.49604,0 0,0 0.49603,0 0,2.84136 0.49603,0 0,1.89423 0.49604,0 0,0.94712 0.49603,0 0,-2.84135 0.49604,0 0,-0.94712 0.49603,0 0,2.84135 0.49603,0 0,0 0.49604,0 0,-3.78847 0.49603,0 0,-2.84136 0.49604,0 0,-1.89424 0.49603,0 0,3.78848 0.49603,0 0,-1.89424 0.49604,0 0,-5.68271 0.49603,0 0,-1.89424 0.49604,0 0,0.94712 0.49603,0 0,7.57695 0.49603,0 0,-11.36543 0.49604,0 0,-2.84135 0.49603,0 0,7.57695 0.49604,0 0,-12.31255 0.49603,0 0,-1.89424 0.49603,0 0,4.7356 0.49604,0 0,-3.78848 0.49603,0 0,-1.89424 0.49604,0 0,-6.62983 0.49603,0 0,-7.57695 0.49603,0 0,-12.31255 0.49604,0 0,0 0.49603,0 0,-12.31255 0.49604,0 0,-10.4183 0.49603,0 0,-12.31255 0.49603,0 0,-17.99526 0.49604,0 0,-41.67324 0.49603,0 0,-18.94238 0.49604,0 0,0.94712 0.49603,0 0,-38.83188 0.49603,0 0,-17.99526 0.49604,0 0,-28.41357 0.49603,0 0,-55.88002 0.49604,0 0,-2.841357 0.49603,0 0,28.41357 0.49603,0 0,105.130207 0.49604,0 0,87.13495 0.49603,0 0,63.45697 0.49604,0 0,23.67798 0.49603,0 0,5.68271 0.49603,0 0,0.94712 0.49604,0 0,0 0.49603,0 0,0.94712 0.49604,0 0,-1.89424 0.49603,0 0,1.89424 0.49603,0 0,-0.94712 0.49604,0 0,0 0.49603,0 0,-0.94712 0.49604,0 0,1.89424 0.49603,0 0,-2.84136 0.49603,0 0,0.94712 0.49604,0 0,0 0.49603,0 0,0 0.49604,0 0,1.89424 0.49603,0 0,0 0.49603,0 0,-0.94712 0.49604,0 0,0 0.49603,0 0,0.94712 0.49604,0 0,-0.94712 0.49603,0 0,0.94712 0.49603,0 0,0 0.49604,0 0,-0.94712 0.49603,0 0,-2.84136 0.49604,0 0,1.89424 0.49603,0 0,0 0.49603,0 0,1.89424 0.49604,0 0,0 0.49603,0 0,0 0.49604,0 0,-0.94712 0.49603,0 0,-2.84136 0.49603,0 0,1.89424 0.49604,0 0,0 0.49603,0 0,0.94712 0.49604,0 0,-0.94712 0.49603,0 0,-1.89424 0.49603,0 0,1.89424 0.49604,0 0,-0.94712 0.49603,0 0,0 0.49604,0 0,0.94712 0.49603,0 0,0 0.49603,0 0,-4.73559 0.49604,0 0,1.89423 0.49603,0 0,-5.68271 0.49604,0 0,8.52407 0.49603,0 0,-5.68271 0.49603,0 0,0.94712 0.49604,0 0,1.89423 0.49603,0 0,0.94712 0.49604,0 0,-1.89423 0.49603,0 0,3.78847 0.49603,0 0,-1.89424 0.49604,0 0,-1.89423 0.49603,0 0,-2.84136 0.49604,0 0,1.89424 0.49603,0 0,0.94712 0.49603,0 0,-0.94712 0.49604,0 0,2.84135 0.49603,0 0,-3.78847 0.49604,0 0,-0.94712 0.49603,0 0,0 0.49603,0 0,-2.84136 0.49604,0 0,-1.89424 0.49603,0 0,-4.73559 0.49604,0 0,-0.94712 0.49603,0 0,-2.84136 0.49603,0 0,6.62984 0.49604,0 0,-9.47119 0.49603,0 0,-1.89424 0.49604,0 0,2.84135 0.49603,0 0,-12.31254 0.49603,0 0,-8.52407 0.49604,0 0,7.57695 0.49603,0 0,-10.41831 0.49604,0 0,-27.46645 0.49603,0 0,-17.04814 0.49603,0 0,-2.84136 0.49604,0 0,-15.1539 0.49603,0 0,-34.09629 0.49604,0 0,-19.8895 0.49603,0 0,-35.99052 0.49603,0 0,-33.14916 0.49604,0 0,-46.408835 0.49603,0 0,-33.149165 0.49604,0 0,-30.307808 0.49603,0 0,51.144426 0.49603,0 0,62.509852 0.49604,0 0,107.02445 0.49603,0 0,89.9763 0.49604,0 0,17.99526 0.49603,0 0,5.68272 0.49603,0 0,0.94712 0.49604,0 0,3.78847 0.49603,0 0,-4.73559 0.49604,0 0,1.89424 0.49603,0 0,-0.94712 0.49603,0 0,4.73559 0.49604,0 0,0 0.49603,0 0,0 0.49604,0 0,0 0.49603,0 0,1.89424 0.49603,0 0,0 0.49604,0 0,-0.94712 0.49603,0 0,0.94712 0.49604,0 0,0 0.49603,0 0,0.94712 0.49603,0 0,-0.94712 0.49604,0 0,0 0.49603,0 0,0.94712 0.49604,0 0,0 0.49603,0 0,-0.94712 0.49603,0 0,0.94712 0.49604,0 0,-1.89424 0.49603,0 0,1.89424 0.49604,0 0,0 0.49603,0 0,-0.94712 0.49603,0 0,0.94712 0.49604,0 0,0 0.49603,0 0,0 0.49604,0 0,0 0.49603,0 0,0 0.49603,0 0,0 0.49604,0 0,0 0.49603,0 0,0 0.49604,0 0,0 0.49603,0 0,0 0.49603,0 0,0 0.49604,0 0,0"
                   sodipodi:nodetypes="cccccccccccccccccccccccccccccccccccccccccccccccccccccccccccccccccccccccccccccccccccccccccccccccccccccccccccccccccccccccccccccccccccccccccccccccccccccccccccccccccccccccccccccccccccccccccccccccccccccccccccccccccccccccccccccccccccccccccccccccccccccccccccccccccccccccccccccccccccccccccccccccccccccccccccccccccccccccccccccccccccccccccccccccccccccccccccccccccccccccccccccccccccccccccccccccccccccccccccccccccccccccccccccccccccccccccccccccccccccccccccccccccccccccccccccccccccccccccccccccccccccccccccccccccccccccccccccccccccccccccccccccccccccccccccccccccccccccccccccccccccccccccccccccccccccccccccccccccccccccccccccccccccccccccccccccccccccccccccccccccccccccccccccccc" />
              </g>
            </g>
            <g
               style="fill:none;fill-rule:evenodd;stroke:#004455;stroke-width:1;stroke-linecap:square;stroke-linejoin:bevel"
               id="PlotCurveItem_2">
              <g
                 style="font-style:normal;font-weight:400;font-size:14.66670036px;font-family:Ubuntu;fill:#7ec5dc;fill-opacity:0.39215698;stroke:#004455"
                 id="g148"
                 font-weight="400"
                 font-style="normal"
                 font-size="14.6667">
                <path
                   style="fill-rule:evenodd;stroke:#004455"
                   inkscape:connector-curvature="0"
                   id="path150"
                   vector-effect="non-scaling-stroke"
                   d="m 359.921,379 0.0387,0 0.0387,0 0.0387,0 0.0387,0 0.0387,0 0.0387,0 0.0392,0 0.0387,0 0.0387,0 0.0387,0 0.0387,0 0.0387,0 0.0387,0 0.0387,0 0.0387,0 0.0387,0 0.0387,0 0.0387,0 0.0387,0 0.0392,0 0.0387,0 0.0387,0 0.0387,0 0.0387,0 0.0387,0 0.0387,0 0.0387,0 0.0387,0 0.0387,0 0.0387,0 0.0387,0 0.0387,0 0.0392,0 0.0387,0 0.0387,0 0.0387,0 0.0387,0 0.0387,0 0.0387,0 0.0387,0 0.0387,0 0.0387,0 0.0387,0 0.0387,0 0.0392,0 0.0387,0 0.0387,0 0.0387,0 0.0387,0 0.0387,0 0.0387,0 0.0387,0 0.0387,0 0.0387,0 0.0387,0 0.0387,0 0.0387,0 0.0392,0 0.0387,0 0.0387,0 0.0387,0 0.0387,0 0.0387,0 0.0387,0 0.0387,0 0.0387,0 0.0387,0 0.0387,0 0.0387,0 0.0387,0 0.0392,0 0.0387,0 0.0387,0 0.0387,0 0.0387,0 0.0387,0 0.0387,0 0.0387,0 0.0387,0 0.0387,0 0.0387,0 0.0387,0 0.0387,0 0.0392,0 0.0387,0 0.0387,0 0.0387,0 0.0387,0 0.0387,0 0.0387,0 0.0387,0 0.0387,0 0.0387,0 0.0387,0 0.0387,0 0.0387,0 0.0392,0 0.0387,0 0.0387,0 0.0387,0 0.0387,0 0.0387,0 0.0387,0 0.0387,0 0.0387,0 0.0387,0 0.0387,0 0.0387,0 0.0392,0 0.0387,0 0.0387,0 0.0387,0 0.0387,0 0.0387,0 0.0387,0 0.0387,0 0.0387,0 0.0387,0 0.0387,0 0.0387,0 0.0387,0 0.0392,0 0.0387,0 0.0387,0 0.0387,0 0.0387,0 0.0387,0 0.0387,0 0.0387,0 0.0387,0 0.0387,0 0.0387,0 0.0387,0 0.0387,0 0.0392,0 0.0387,0 0.0387,0 0.0387,0 0.0387,0 0.0387,0 0.0387,0 0.0387,0 0.0387,0 0.0387,0 0.0387,0 0.0387,0 0.0387,0 0.0392,0 0.0387,0 0.0387,0 0.0387,0 0.0387,0 0.0387,0 0.0387,0 0.0387,0 0.0387,0 0.0387,0 0.0387,0 0.0387,0 0.0387,0 0.0392,0 0.0387,0 0.0387,0 0.0387,0 0.0387,0 0.0387,0 0.0387,0 0.0387,0 0.0387,0 0.0387,0 0.0387,0 0.0387,0 0.0392,0 0.0387,0 0.0387,0 0.0387,0 0.0387,0 0.0387,0 0.0387,0 0.0387,0 0.0387,0 0.0387,0 0.0387,0 0.0387,0 0.0387,0 0.0392,0 0.0387,0 0.0387,0 0.0387,0 0.0387,0 0.0387,0 0.0387,0 0.0387,0 0.0387,0 0.0387,0 0.0387,0 0.0387,0 0.0387,0 0.0392,0 0.0387,0 0.0387,0 0.0387,0 0.0387,0 0.0387,0 0.0387,0 0.0387,0 0.0387,0 0.0387,0 0.0387,0 0.0387,0 0.0387,0 0.0392,0 0.0387,0 0.0387,0 0.0387,0 0.0387,0 0.0387,0 0.0387,0 0.0387,0 0.0387,0 0.0387,0 0.0387,0 0.0387,0 0.0387,0 0.0392,0 0.0387,0 0.0387,0 0.0387,0 0.0387,0 0.0387,0 0.0387,0 0.0387,-10e-6 0.0387,0 0.0387,0 0.0387,0 0.0387,0 0.0392,0 0.0387,0 0.0387,0 0.0387,-1e-5 0.0387,0 0.0387,0 0.0387,0 0.0387,0 0.0387,-10e-6 0.0387,0 0.0387,-1e-5 0.0387,0 0.0387,-10e-6 0.0392,0 0.0387,-1e-5 0.0387,-10e-6 0.0387,0 0.0387,-1e-5 0.0387,-10e-6 0.0387,-2e-5 0.0387,-10e-6 0.0387,-2e-5 0.0387,-1e-5 0.0387,-2e-5 0.0387,-2e-5 0.0387,-3e-5 0.0392,-2e-5 0.0387,-3e-5 0.0387,-3e-5 0.0387,-4e-5 0.0387,-4e-5 0.0387,-5e-5 0.0387,-5e-5 0.0387,-6e-5 0.0387,-6e-5 0.0387,-7e-5 0.0387,-8e-5 0.0387,-9e-5 0.0387,-9e-5 0.0392,-1.1e-4 0.0387,-1.2e-4 0.0387,-1.3e-4 0.0387,-1.5e-4 0.0387,-1.6e-4 0.0387,-1.8e-4 0.0387,-2e-4 0.0387,-2.2e-4 0.0387,-2.5e-4 0.0387,-2.7e-4 0.0387,-3e-4 0.0387,-3.3e-4 0.0387,-3.7e-4 0.0392,-4e-4 0.0387,-4.5e-4 0.0387,-4.9e-4 0.0387,-5.4e-4 0.0387,-6e-4 0.0387,-6.5e-4 0.0387,-7.3e-4 0.0387,-7.9e-4 0.0387,-8.8e-4 0.0387,-9.6e-4 0.0387,-0.001 0.0387,-10e-4 0.0392,-0.001 0.0387,-10e-4 0.0387,-0.002 0.0387,-0.002 0.0387,-0.002 0.0387,-0.002 0.0387,-0.002 0.0387,-0.002 0.0387,-0.003 0.0387,-0.003 0.0387,-0.003 0.0387,-0.003 0.0387,-0.004 0.0392,-0.004 0.0387,-0.004 0.0387,-0.005 0.0387,-0.005 0.0387,-0.006 0.0387,-0.006 0.0387,-0.007 0.0387,-0.007 0.0387,-0.008 0.0387,-0.009 0.0387,-0.009 0.0387,-0.0102 0.0387,-0.011 0.0392,-0.0119 0.0387,-0.0129 0.0387,-0.014 0.0387,-0.0151 0.0387,-0.0163 0.0387,-0.0177 0.0387,-0.0191 0.0387,-0.0206 0.0387,-0.0222 0.0387,-0.024 0.0387,-0.0258 0.0387,-0.0278 0.0387,-0.03 0.0392,-0.0322 0.0387,-0.0347 0.0387,-0.0373 0.0387,-0.04 0.0387,-0.043 0.0387,-0.0462 0.0387,-0.0495 0.0387,-0.0531 0.0387,-0.0569 0.0387,-0.0609 0.0387,-0.0653 0.0387,-0.0698 0.0387,-0.0747 0.0392,-0.0798 0.0387,-0.0853 0.0387,-0.0911 0.0387,-0.0972 0.0387,-0.10372 0.0387,-0.11058 0.0387,-0.11785 0.0387,-0.12552 0.0387,-0.13362 0.0387,-0.14218 0.0387,-0.15121 0.0387,-0.16072 0.0387,-0.17074 0.0392,-0.1813 0.0387,-0.19241 0.0387,-0.20408 0.0387,-0.21636 0.0387,-0.22925 0.0387,-0.24279 0.0387,-0.25699 0.0387,-0.27188 0.0387,-0.28747 0.0387,-0.30379 0.0387,-0.3209 0.0387,-0.33876 0.0392,-0.35744 0.0387,-0.37694 0.0387,-0.39731 0.0387,-0.41854 0.0387,-0.44067 0.0387,-0.46373 0.0387,-0.48773 0.0387,-0.5127 0.0387,-0.53861 0.0387,-0.56562 0.0387,-0.59366 0.0387,-0.62263 0.0387,-0.65276 0.0392,-0.68401 0.0387,-0.71621 0.0387,-0.74964 0.0387,-0.78422 0.0387,-0.81982 0.0387,-0.85667 0.0387,-0.89465 0.0387,-0.93386 0.0387,-0.97411 0.0387,-1.01569 0.0387,-1.05831 0.0387,-1.10216 0.0387,-1.14716 0.0392,-1.19336 0.0387,-1.24073 0.0387,-1.28922 0.0387,-1.33885 0.0387,-1.38961 0.0387,-1.44142 0.0387,-1.49436 0.0387,-1.54826 0.0387,-1.60328 0.0387,-1.65936 0.0387,-1.71618 0.0387,-1.77404 0.0387,-1.83277 0.0392,-1.89225 0.0387,-1.95258 0.0387,-2.01367 0.0387,-2.07524 0.0387,-2.13764 0.0387,-2.20035 0.0387,-2.2638 0.0387,-2.32736 0.0387,-2.39138 0.0387,-2.45569 0.0387,-2.52009 0.0387,-2.5846 0.0387,-2.64899 0.0392,-2.71341 0.0387,-2.77752 0.0387,-2.84126 0.0387,-2.90472 0.0387,-2.9677 0.0387,-3.02983 0.0387,-3.0915 0.0387,-3.15248 0.0387,-3.21168 0.0387,-3.2704 0.0387,-3.32723 0.0387,-3.38406 0.0392,-3.43804 0.0387,-3.49203 0.0387,-3.54222 0.0387,-3.59243 0.0387,-3.63977 0.0387,-3.68524 0.0387,-3.72881 0.0387,-3.76954 0.0387,-3.80741 0.0387,-3.84341 0.0387,-3.87656 0.0387,-3.90781 0.0387,-3.93434 0.0392,-3.95895 0.0387,-3.9798 0.0387,-3.99779 0.0387,-4.01199 0.0387,-4.02336 0.0387,-4.03 0.0387,-4.03472 0.0387,-4.03378 0.0387,-4.03094 0.0387,-4.02242 0.0387,-4.0101 0.0387,-3.99495 0.0387,-3.97505 0.0392,-3.95044 0.0387,-3.92202 0.0387,-3.88981 0.0387,-3.85194 0.0387,-3.8112 0.0387,-3.76575 0.0387,-3.71649 0.0387,-3.66157 0.0387,-3.60284 0.0387,-3.54033 0.0387,-3.47308 0.0387,-3.40111 0.0387,-3.32628 0.0392,-3.24578 0.0387,-3.16243 0.0387,-3.07529 0.0387,-2.98248 0.0387,-2.88777 0.0387,-2.78737 0.0387,-2.68508 0.0387,-2.578058 0.0387,-2.468192 0.0387,-2.354537 0.0387,-2.23899 0.0387,-2.118705 0.0387,-1.996527 0.0392,-1.87056 0.0387,-1.743646 0.0387,-1.613891 0.0387,-1.480347 0.0387,-1.346803 0.0387,-1.210418 0.0387,-1.072139 0.0387,-0.932912 0.0387,-0.791791 0.0387,-0.649724 0.0387,-0.507656 0.0387,-0.363694 0.0392,-0.218784 0.0387,-0.07577 0.0387,0.06914 0.0387,0.214049 0.0387,0.358011 0.0387,0.501973 0.0387,0.644041 0.0387,0.786109 0.0387,0.927229 0.0387,1.066456 0.0387,1.205683 0.0387,1.34112 0.0387,1.475612 0.0392,1.608208 0.0387,1.737963 0.0387,1.866772 0.0387,1.990844 0.0387,2.113969 0.0387,2.234254 0.0387,2.349802 0.0387,2.464404 0.0387,2.573325 0.0387,2.68129 0.0387,2.78358 0.0387,2.88303 0.0387,2.97964 0.0392,3.07056 0.0387,3.15959 0.0387,3.24293 0.0387,3.3225 0.0387,3.39921 0.0387,3.47024 0.0387,3.53749 0.0387,3.60095 0.0387,3.65872 0.0387,3.71365 0.0387,3.76385 0.0387,3.81026 0.0387,3.85099 0.0392,3.88792 0.0387,3.92108 0.0387,3.94948 0.0387,3.97411 0.0387,3.994 0.0387,4.01011 0.0387,4.02146 0.0387,4.02999 0.0387,4.03473 0.0387,4.03378 0.0387,4.03094 0.0387,4.02336 0.0387,4.01294 0.0392,3.99874 0.0387,3.98074 0.0387,3.95896 0.0387,3.93623 0.0387,3.90781 0.0387,3.87845 0.0387,3.84436 0.0387,3.80931 0.0387,3.77143 0.0387,3.72975 0.0387,3.68714 0.0387,3.64167 0.0392,3.59432 0.0387,3.54411 0.0387,3.49393 0.0387,3.44088 0.0387,3.38595 0.0387,3.33007 0.0387,3.2723 0.0387,3.21452 0.0387,3.154 0.0387,3.09386 0.0387,3.03239 0.0387,2.97007 0.0387,2.90728 0.0392,2.84382 0.0387,2.77998 0.0387,2.71596 0.0387,2.65155 0.0387,2.58715 0.0387,2.52256 0.0387,2.45825 0.0387,2.39393 0.0387,2.32992 0.0387,2.26626 0.0387,2.20291 0.0387,2.14011 0.0387,2.07769 0.0392,2.01604 0.0387,1.95504 0.0387,1.89462 0.0387,1.83514 0.0387,1.77632 0.0387,1.71845 0.0387,1.66153 0.0387,1.60547 0.0387,1.55052 0.0387,1.49645 0.0387,1.44351 0.0387,1.3916 0.0387,1.34083 0.0392,1.29121 0.0387,1.24253 0.0387,1.19526 0.0387,1.14895 0.0387,1.10396 0.0387,1.06002 0.0387,1.0173 0.0387,0.97572 0.0387,0.93547 0.0387,0.89616 0.0387,0.85819 0.0387,0.82125 0.0387,0.78554 0.0392,0.75106 0.0387,0.71754 0.0387,0.68514 0.0387,0.65399 0.0387,0.62387 0.0387,0.59469 0.0387,0.56676 0.0387,0.53969 0.0387,0.51371 0.0387,0.4887 0.0387,0.46466 0.0387,0.44156 0.0392,0.4194 0.0387,0.39813 0.0387,0.37774 0.0387,0.35819 0.0387,0.33948 0.0387,0.32159 0.0387,0.30446 0.0387,0.2881 0.0387,0.27248 0.0387,0.25756 0.0387,0.24334 0.0387,0.22977 0.0387,0.21686 0.0392,0.20456 0.0387,0.19286 0.0387,0.18172 0.0387,0.17115 0.0387,0.16111 0.0387,0.15157 0.0387,0.14253 0.0387,0.13396 0.0387,0.12583 0.0387,0.11814 0.0387,0.11086 0.0387,0.10398 0.0387,0.0975 0.0392,0.0913 0.0387,0.0855 0.0387,0.08 0.0387,0.0749 0.0387,0.07 0.0387,0.0654 0.0387,0.0611 0.0387,0.0571 0.0387,0.0532 0.0387,0.0497 0.0387,0.0463 0.0387,0.0431 0.0387,0.0401 0.0392,0.0374 0.0387,0.0348 0.0387,0.0323 0.0387,0.03 0.0387,0.0279 0.0387,0.0259 0.0387,0.024 0.0387,0.0223 0.0387,0.0207 0.0387,0.0191 0.0387,0.0177 0.0387,0.0164 0.0387,0.0152 0.0392,0.014 0.0387,0.013 0.0387,0.012 0.0387,0.0111 0.0387,0.0102 0.0387,0.009 0.0387,0.009 0.0387,0.008 0.0387,0.007 0.0387,0.007 0.0387,0.006 0.0387,0.006 0.0387,0.005 0.0392,0.005 0.0387,0.004 0.0387,0.004 0.0387,0.004 0.0387,0.003 0.0387,0.003 0.0387,0.003 0.0387,0.003 0.0387,0.002 0.0387,0.002 0.0387,0.002 0.0387,0.002 0.0392,0.002 0.0387,0.002 0.0387,10e-4 0.0387,0.001 0.0387,10e-4 0.0387,0.001 0.0387,9.7e-4 0.0387,8.8e-4 0.0387,7.9e-4 0.0387,7.3e-4 0.0387,6.6e-4 0.0387,6e-4 0.0387,5.4e-4 0.0392,4.9e-4 0.0387,4.5e-4 0.0387,4.1e-4 0.0387,3.6e-4 0.0387,3.4e-4 0.0387,3e-4 0.0387,2.7e-4 0.0387,2.5e-4 0.0387,2.2e-4 0.0387,2e-4 0.0387,1.8e-4 0.0387,1.7e-4 0.0387,1.4e-4 0.0392,1.4e-4 0.0387,1.2e-4 0.0387,10e-5 0.0387,1e-4 0.0387,9e-5 0.0387,8e-5 0.0387,7e-5 0.0387,6e-5 0.0387,6e-5 0.0387,5e-5 0.0387,5e-5 0.0387,4e-5 0.0387,3e-5 0.0392,4e-5 0.0387,3e-5 0.0387,2e-5 0.0387,3e-5 0.0387,2e-5 0.0387,2e-5 0.0387,1e-5 0.0387,2e-5 0.0387,10e-6 0.0387,10e-6 0.0387,2e-5 0.0387,0 0.0387,1e-5 0.0392,10e-6 0.0387,1e-5 0.0387,0 0.0387,10e-6 0.0387,0 0.0387,1e-5 0.0387,0 0.0387,0 0.0387,10e-6 0.0387,0 0.0387,0 0.0387,0 0.0392,10e-6 0.0387,0 0.0387,0 0.0387,0 0.0387,0 0.0387,0 0.0387,0 0.0387,0 0.0387,1e-5 0.0387,0 0.0387,0 0.0387,0 0.0387,0 0.0392,0 0.0387,0 0.0387,0 0.0387,0 0.0387,0 0.0387,0 0.0387,0 0.0387,0 0.0387,0 0.0387,0 0.0387,0 0.0387,0 0.0387,0 0.0392,0 0.0387,0 0.0387,0 0.0387,0 0.0387,0 0.0387,0 0.0387,0 0.0387,0 0.0387,0 0.0387,0 0.0387,0 0.0387,0 0.0387,0 0.0392,0 0.0387,0 0.0387,0 0.0387,0 0.0387,0 0.0387,0 0.0387,0 0.0387,0 0.0387,0 0.0387,0 0.0387,0 0.0387,0 0.0387,0 0.0392,0 0.0387,0 0.0387,0 0.0387,0 0.0387,0 0.0387,0 0.0387,0 0.0387,0 0.0387,0 0.0387,0 0.0387,0 0.0387,0 0.0392,0 0.0387,0 0.0387,0 0.0387,0 0.0387,0 0.0387,0 0.0387,0 0.0387,0 0.0387,0 0.0387,0 0.0387,0 0.0387,0 0.0387,0 0.0392,0 0.0387,0 0.0387,0 0.0387,0 0.0387,0 0.0387,0 0.0387,0 0.0387,0 0.0387,0 0.0387,0 0.0387,0 0.0387,0 0.0387,0 0.0392,0 0.0387,0 0.0387,0 0.0387,0 0.0387,0 0.0387,0 0.0387,0 0.0387,0 0.0387,0 0.0387,0 0.0387,0 0.0387,0 0.0387,0 0.0392,0 0.0387,0 0.0387,0 0.0387,0 0.0387,0 0.0387,0 0.0387,0 0.0387,0 0.0387,0 0.0387,0 0.0387,0 0.0387,0 0.0387,0 0.0392,0 0.0387,0 0.0387,0 0.0387,0 0.0387,0 0.0387,0 0.0387,0 0.0387,0 0.0387,0 0.0387,0 0.0387,0 0.0387,0 0.0392,0 0.0387,0 0.0387,0 0.0387,0 0.0387,0 0.0387,0 0.0387,0 0.0387,0 0.0387,0 0.0387,0 0.0387,0 0.0387,0 0.0387,0 0.0392,0 0.0387,0 0.0387,0 0.0387,0 0.0387,0 0.0387,0 0.0387,0 0.0387,0 0.0387,0 0.0387,0 0.0387,0 0.0387,0 0.0387,0 0.0392,0 0.0387,0 0.0387,0 0.0387,0 0.0387,0 0.0387,0 0.0387,0 0.0387,0 0.0387,0 0.0387,0 0.0387,0 0.0387,0 0.0387,0 0.0392,0 0.0387,0 0.0387,0 0.0387,0 0.0387,0 0.0387,0 0.0387,0 0.0387,0 0.0387,0 0.0387,0 0.0387,0 0.0387,0 0.0387,0 0.0392,0 0.0387,0 0.0387,0 0.0387,0 0.0387,0 0.0387,0 0.0387,0 0.0387,0 0.0387,0 0.0387,0 0.0387,0 0.0387,0 0.0392,0 0.0387,0 0.0387,0 0.0387,0 0.0387,0 0.0387,0 0.0387,0 0.0387,0 0.0387,0 0.0387,0 0.0387,0 0.0387,0 0.0387,0 0.0392,0 0.0387,0 0.0387,0 0.0387,0 0.0387,0 0.0387,0 0.0387,0 0.0387,0 0.0387,0 0.0387,0 0.0387,0 0.0387,0 0.0387,0 0.0392,0 0.0387,0 0.0387,0 0.0387,0 0.0387,0 0.0387,0 0.0387,0 -38.69065,0 0.0387,0" />
              </g>
              <g
                 style="font-style:normal;font-weight:400;font-size:14.66670036px;font-family:Ubuntu;fill:none;stroke:#004455;stroke-width:1;stroke-linecap:square;stroke-linejoin:bevel;stroke-opacity:1"
                 id="g152"
                 font-weight="400"
                 font-style="normal"
                 font-size="14.6667">
                <path
                   style="fill-rule:evenodd;stroke:#004455"
                   inkscape:connector-curvature="0"
                   id="path154"
                   vector-effect="non-scaling-stroke"
                   d="m 359.921,379 0.0387,0 0.0387,0 0.0387,0 0.0387,0 0.0387,0 0.0387,0 0.0392,0 0.0387,0 0.0387,0 0.0387,0 0.0387,0 0.0387,0 0.0387,0 0.0387,0 0.0387,0 0.0387,0 0.0387,0 0.0387,0 0.0387,0 0.0392,0 0.0387,0 0.0387,0 0.0387,0 0.0387,0 0.0387,0 0.0387,0 0.0387,0 0.0387,0 0.0387,0 0.0387,0 0.0387,0 0.0387,0 0.0392,0 0.0387,0 0.0387,0 0.0387,0 0.0387,0 0.0387,0 0.0387,0 0.0387,0 0.0387,0 0.0387,0 0.0387,0 0.0387,0 0.0392,0 0.0387,0 0.0387,0 0.0387,0 0.0387,0 0.0387,0 0.0387,0 0.0387,0 0.0387,0 0.0387,0 0.0387,0 0.0387,0 0.0387,0 0.0392,0 0.0387,0 0.0387,0 0.0387,0 0.0387,0 0.0387,0 0.0387,0 0.0387,0 0.0387,0 0.0387,0 0.0387,0 0.0387,0 0.0387,0 0.0392,0 0.0387,0 0.0387,0 0.0387,0 0.0387,0 0.0387,0 0.0387,0 0.0387,0 0.0387,0 0.0387,0 0.0387,0 0.0387,0 0.0387,0 0.0392,0 0.0387,0 0.0387,0 0.0387,0 0.0387,0 0.0387,0 0.0387,0 0.0387,0 0.0387,0 0.0387,0 0.0387,0 0.0387,0 0.0387,0 0.0392,0 0.0387,0 0.0387,0 0.0387,0 0.0387,0 0.0387,0 0.0387,0 0.0387,0 0.0387,0 0.0387,0 0.0387,0 0.0387,0 0.0392,0 0.0387,0 0.0387,0 0.0387,0 0.0387,0 0.0387,0 0.0387,0 0.0387,0 0.0387,0 0.0387,0 0.0387,0 0.0387,0 0.0387,0 0.0392,0 0.0387,0 0.0387,0 0.0387,0 0.0387,0 0.0387,0 0.0387,0 0.0387,0 0.0387,0 0.0387,0 0.0387,0 0.0387,0 0.0387,0 0.0392,0 0.0387,0 0.0387,0 0.0387,0 0.0387,0 0.0387,0 0.0387,0 0.0387,0 0.0387,0 0.0387,0 0.0387,0 0.0387,0 0.0387,0 0.0392,0 0.0387,0 0.0387,0 0.0387,0 0.0387,0 0.0387,0 0.0387,0 0.0387,0 0.0387,0 0.0387,0 0.0387,0 0.0387,0 0.0387,0 0.0392,0 0.0387,0 0.0387,0 0.0387,0 0.0387,0 0.0387,0 0.0387,0 0.0387,0 0.0387,0 0.0387,0 0.0387,0 0.0387,0 0.0392,0 0.0387,0 0.0387,0 0.0387,0 0.0387,0 0.0387,0 0.0387,0 0.0387,0 0.0387,0 0.0387,0 0.0387,0 0.0387,0 0.0387,0 0.0392,0 0.0387,0 0.0387,0 0.0387,0 0.0387,0 0.0387,0 0.0387,0 0.0387,0 0.0387,0 0.0387,0 0.0387,0 0.0387,0 0.0387,0 0.0392,0 0.0387,0 0.0387,0 0.0387,0 0.0387,0 0.0387,0 0.0387,0 0.0387,0 0.0387,0 0.0387,0 0.0387,0 0.0387,0 0.0387,0 0.0392,0 0.0387,0 0.0387,0 0.0387,0 0.0387,0 0.0387,0 0.0387,0 0.0387,0 0.0387,0 0.0387,0 0.0387,0 0.0387,0 0.0387,0 0.0392,0 0.0387,0 0.0387,0 0.0387,0 0.0387,0 0.0387,0 0.0387,0 0.0387,-10e-6 0.0387,0 0.0387,0 0.0387,0 0.0387,0 0.0392,0 0.0387,0 0.0387,0 0.0387,-1e-5 0.0387,0 0.0387,0 0.0387,0 0.0387,0 0.0387,-10e-6 0.0387,0 0.0387,-1e-5 0.0387,0 0.0387,-10e-6 0.0392,0 0.0387,-1e-5 0.0387,-10e-6 0.0387,0 0.0387,-1e-5 0.0387,-10e-6 0.0387,-2e-5 0.0387,-10e-6 0.0387,-2e-5 0.0387,-1e-5 0.0387,-2e-5 0.0387,-2e-5 0.0387,-3e-5 0.0392,-2e-5 0.0387,-3e-5 0.0387,-3e-5 0.0387,-4e-5 0.0387,-4e-5 0.0387,-5e-5 0.0387,-5e-5 0.0387,-6e-5 0.0387,-6e-5 0.0387,-7e-5 0.0387,-8e-5 0.0387,-9e-5 0.0387,-9e-5 0.0392,-1.1e-4 0.0387,-1.2e-4 0.0387,-1.3e-4 0.0387,-1.5e-4 0.0387,-1.6e-4 0.0387,-1.8e-4 0.0387,-2e-4 0.0387,-2.2e-4 0.0387,-2.5e-4 0.0387,-2.7e-4 0.0387,-3e-4 0.0387,-3.3e-4 0.0387,-3.7e-4 0.0392,-4e-4 0.0387,-4.5e-4 0.0387,-4.9e-4 0.0387,-5.4e-4 0.0387,-6e-4 0.0387,-6.5e-4 0.0387,-7.3e-4 0.0387,-7.9e-4 0.0387,-8.8e-4 0.0387,-9.6e-4 0.0387,-0.001 0.0387,-10e-4 0.0392,-0.001 0.0387,-10e-4 0.0387,-0.002 0.0387,-0.002 0.0387,-0.002 0.0387,-0.002 0.0387,-0.002 0.0387,-0.002 0.0387,-0.003 0.0387,-0.003 0.0387,-0.003 0.0387,-0.003 0.0387,-0.004 0.0392,-0.004 0.0387,-0.004 0.0387,-0.005 0.0387,-0.005 0.0387,-0.006 0.0387,-0.006 0.0387,-0.007 0.0387,-0.007 0.0387,-0.008 0.0387,-0.009 0.0387,-0.009 0.0387,-0.0102 0.0387,-0.011 0.0392,-0.0119 0.0387,-0.0129 0.0387,-0.014 0.0387,-0.0151 0.0387,-0.0163 0.0387,-0.0177 0.0387,-0.0191 0.0387,-0.0206 0.0387,-0.0222 0.0387,-0.024 0.0387,-0.0258 0.0387,-0.0278 0.0387,-0.03 0.0392,-0.0322 0.0387,-0.0347 0.0387,-0.0373 0.0387,-0.04 0.0387,-0.043 0.0387,-0.0462 0.0387,-0.0495 0.0387,-0.0531 0.0387,-0.0569 0.0387,-0.0609 0.0387,-0.0653 0.0387,-0.0698 0.0387,-0.0747 0.0392,-0.0798 0.0387,-0.0853 0.0387,-0.0911 0.0387,-0.0972 0.0387,-0.10372 0.0387,-0.11058 0.0387,-0.11785 0.0387,-0.12552 0.0387,-0.13362 0.0387,-0.14218 0.0387,-0.15121 0.0387,-0.16072 0.0387,-0.17074 0.0392,-0.1813 0.0387,-0.19241 0.0387,-0.20408 0.0387,-0.21636 0.0387,-0.22925 0.0387,-0.24279 0.0387,-0.25699 0.0387,-0.27188 0.0387,-0.28747 0.0387,-0.30379 0.0387,-0.3209 0.0387,-0.33876 0.0392,-0.35744 0.0387,-0.37694 0.0387,-0.39731 0.0387,-0.41854 0.0387,-0.44067 0.0387,-0.46373 0.0387,-0.48773 0.0387,-0.5127 0.0387,-0.53861 0.0387,-0.56562 0.0387,-0.59366 0.0387,-0.62263 0.0387,-0.65276 0.0392,-0.68401 0.0387,-0.71621 0.0387,-0.74964 0.0387,-0.78422 0.0387,-0.81982 0.0387,-0.85667 0.0387,-0.89465 0.0387,-0.93386 0.0387,-0.97411 0.0387,-1.01569 0.0387,-1.05831 0.0387,-1.10216 0.0387,-1.14716 0.0392,-1.19336 0.0387,-1.24073 0.0387,-1.28922 0.0387,-1.33885 0.0387,-1.38961 0.0387,-1.44142 0.0387,-1.49436 0.0387,-1.54826 0.0387,-1.60328 0.0387,-1.65936 0.0387,-1.71618 0.0387,-1.77404 0.0387,-1.83277 0.0392,-1.89225 0.0387,-1.95258 0.0387,-2.01367 0.0387,-2.07524 0.0387,-2.13764 0.0387,-2.20035 0.0387,-2.2638 0.0387,-2.32736 0.0387,-2.39138 0.0387,-2.45569 0.0387,-2.52009 0.0387,-2.5846 0.0387,-2.64899 0.0392,-2.71341 0.0387,-2.77752 0.0387,-2.84126 0.0387,-2.90472 0.0387,-2.9677 0.0387,-3.02983 0.0387,-3.0915 0.0387,-3.15248 0.0387,-3.21168 0.0387,-3.2704 0.0387,-3.32723 0.0387,-3.38406 0.0392,-3.43804 0.0387,-3.49203 0.0387,-3.54222 0.0387,-3.59243 0.0387,-3.63977 0.0387,-3.68524 0.0387,-3.72881 0.0387,-3.76954 0.0387,-3.80741 0.0387,-3.84341 0.0387,-3.87656 0.0387,-3.90781 0.0387,-3.93434 0.0392,-3.95895 0.0387,-3.9798 0.0387,-3.99779 0.0387,-4.01199 0.0387,-4.02336 0.0387,-4.03 0.0387,-4.03472 0.0387,-4.03378 0.0387,-4.03094 0.0387,-4.02242 0.0387,-4.0101 0.0387,-3.99495 0.0387,-3.97505 0.0392,-3.95044 0.0387,-3.92202 0.0387,-3.88981 0.0387,-3.85194 0.0387,-3.8112 0.0387,-3.76575 0.0387,-3.71649 0.0387,-3.66157 0.0387,-3.60284 0.0387,-3.54033 0.0387,-3.47308 0.0387,-3.40111 0.0387,-3.32628 0.0392,-3.24578 0.0387,-3.16243 0.0387,-3.07529 0.0387,-2.98248 0.0387,-2.88777 0.0387,-2.78737 0.0387,-2.68508 0.0387,-2.578058 0.0387,-2.468192 0.0387,-2.354537 0.0387,-2.23899 0.0387,-2.118705 0.0387,-1.996527 0.0392,-1.87056 0.0387,-1.743646 0.0387,-1.613891 0.0387,-1.480347 0.0387,-1.346803 0.0387,-1.210418 0.0387,-1.072139 0.0387,-0.932912 0.0387,-0.791791 0.0387,-0.649724 0.0387,-0.507656 0.0387,-0.363694 0.0392,-0.218784 0.0387,-0.07577 0.0387,0.06914 0.0387,0.214049 0.0387,0.358011 0.0387,0.501973 0.0387,0.644041 0.0387,0.786109 0.0387,0.927229 0.0387,1.066456 0.0387,1.205683 0.0387,1.34112 0.0387,1.475612 0.0392,1.608208 0.0387,1.737963 0.0387,1.866772 0.0387,1.990844 0.0387,2.113969 0.0387,2.234254 0.0387,2.349802 0.0387,2.464404 0.0387,2.573325 0.0387,2.68129 0.0387,2.78358 0.0387,2.88303 0.0387,2.97964 0.0392,3.07056 0.0387,3.15959 0.0387,3.24293 0.0387,3.3225 0.0387,3.39921 0.0387,3.47024 0.0387,3.53749 0.0387,3.60095 0.0387,3.65872 0.0387,3.71365 0.0387,3.76385 0.0387,3.81026 0.0387,3.85099 0.0392,3.88792 0.0387,3.92108 0.0387,3.94948 0.0387,3.97411 0.0387,3.994 0.0387,4.01011 0.0387,4.02146 0.0387,4.02999 0.0387,4.03473 0.0387,4.03378 0.0387,4.03094 0.0387,4.02336 0.0387,4.01294 0.0392,3.99874 0.0387,3.98074 0.0387,3.95896 0.0387,3.93623 0.0387,3.90781 0.0387,3.87845 0.0387,3.84436 0.0387,3.80931 0.0387,3.77143 0.0387,3.72975 0.0387,3.68714 0.0387,3.64167 0.0392,3.59432 0.0387,3.54411 0.0387,3.49393 0.0387,3.44088 0.0387,3.38595 0.0387,3.33007 0.0387,3.2723 0.0387,3.21452 0.0387,3.154 0.0387,3.09386 0.0387,3.03239 0.0387,2.97007 0.0387,2.90728 0.0392,2.84382 0.0387,2.77998 0.0387,2.71596 0.0387,2.65155 0.0387,2.58715 0.0387,2.52256 0.0387,2.45825 0.0387,2.39393 0.0387,2.32992 0.0387,2.26626 0.0387,2.20291 0.0387,2.14011 0.0387,2.07769 0.0392,2.01604 0.0387,1.95504 0.0387,1.89462 0.0387,1.83514 0.0387,1.77632 0.0387,1.71845 0.0387,1.66153 0.0387,1.60547 0.0387,1.55052 0.0387,1.49645 0.0387,1.44351 0.0387,1.3916 0.0387,1.34083 0.0392,1.29121 0.0387,1.24253 0.0387,1.19526 0.0387,1.14895 0.0387,1.10396 0.0387,1.06002 0.0387,1.0173 0.0387,0.97572 0.0387,0.93547 0.0387,0.89616 0.0387,0.85819 0.0387,0.82125 0.0387,0.78554 0.0392,0.75106 0.0387,0.71754 0.0387,0.68514 0.0387,0.65399 0.0387,0.62387 0.0387,0.59469 0.0387,0.56676 0.0387,0.53969 0.0387,0.51371 0.0387,0.4887 0.0387,0.46466 0.0387,0.44156 0.0392,0.4194 0.0387,0.39813 0.0387,0.37774 0.0387,0.35819 0.0387,0.33948 0.0387,0.32159 0.0387,0.30446 0.0387,0.2881 0.0387,0.27248 0.0387,0.25756 0.0387,0.24334 0.0387,0.22977 0.0387,0.21686 0.0392,0.20456 0.0387,0.19286 0.0387,0.18172 0.0387,0.17115 0.0387,0.16111 0.0387,0.15157 0.0387,0.14253 0.0387,0.13396 0.0387,0.12583 0.0387,0.11814 0.0387,0.11086 0.0387,0.10398 0.0387,0.0975 0.0392,0.0913 0.0387,0.0855 0.0387,0.08 0.0387,0.0749 0.0387,0.07 0.0387,0.0654 0.0387,0.0611 0.0387,0.0571 0.0387,0.0532 0.0387,0.0497 0.0387,0.0463 0.0387,0.0431 0.0387,0.0401 0.0392,0.0374 0.0387,0.0348 0.0387,0.0323 0.0387,0.03 0.0387,0.0279 0.0387,0.0259 0.0387,0.024 0.0387,0.0223 0.0387,0.0207 0.0387,0.0191 0.0387,0.0177 0.0387,0.0164 0.0387,0.0152 0.0392,0.014 0.0387,0.013 0.0387,0.012 0.0387,0.0111 0.0387,0.0102 0.0387,0.009 0.0387,0.009 0.0387,0.008 0.0387,0.007 0.0387,0.007 0.0387,0.006 0.0387,0.006 0.0387,0.005 0.0392,0.005 0.0387,0.004 0.0387,0.004 0.0387,0.004 0.0387,0.003 0.0387,0.003 0.0387,0.003 0.0387,0.003 0.0387,0.002 0.0387,0.002 0.0387,0.002 0.0387,0.002 0.0392,0.002 0.0387,0.002 0.0387,10e-4 0.0387,0.001 0.0387,10e-4 0.0387,0.001 0.0387,9.7e-4 0.0387,8.8e-4 0.0387,7.9e-4 0.0387,7.3e-4 0.0387,6.6e-4 0.0387,6e-4 0.0387,5.4e-4 0.0392,4.9e-4 0.0387,4.5e-4 0.0387,4.1e-4 0.0387,3.6e-4 0.0387,3.4e-4 0.0387,3e-4 0.0387,2.7e-4 0.0387,2.5e-4 0.0387,2.2e-4 0.0387,2e-4 0.0387,1.8e-4 0.0387,1.7e-4 0.0387,1.4e-4 0.0392,1.4e-4 0.0387,1.2e-4 0.0387,10e-5 0.0387,1e-4 0.0387,9e-5 0.0387,8e-5 0.0387,7e-5 0.0387,6e-5 0.0387,6e-5 0.0387,5e-5 0.0387,5e-5 0.0387,4e-5 0.0387,3e-5 0.0392,4e-5 0.0387,3e-5 0.0387,2e-5 0.0387,3e-5 0.0387,2e-5 0.0387,2e-5 0.0387,1e-5 0.0387,2e-5 0.0387,10e-6 0.0387,10e-6 0.0387,2e-5 0.0387,0 0.0387,1e-5 0.0392,10e-6 0.0387,1e-5 0.0387,0 0.0387,10e-6 0.0387,0 0.0387,1e-5 0.0387,0 0.0387,0 0.0387,10e-6 0.0387,0 0.0387,0 0.0387,0 0.0392,10e-6 0.0387,0 0.0387,0 0.0387,0 0.0387,0 0.0387,0 0.0387,0 0.0387,0 0.0387,1e-5 0.0387,0 0.0387,0 0.0387,0 0.0387,0 0.0392,0 0.0387,0 0.0387,0 0.0387,0 0.0387,0 0.0387,0 0.0387,0 0.0387,0 0.0387,0 0.0387,0 0.0387,0 0.0387,0 0.0387,0 0.0392,0 0.0387,0 0.0387,0 0.0387,0 0.0387,0 0.0387,0 0.0387,0 0.0387,0 0.0387,0 0.0387,0 0.0387,0 0.0387,0 0.0387,0 0.0392,0 0.0387,0 0.0387,0 0.0387,0 0.0387,0 0.0387,0 0.0387,0 0.0387,0 0.0387,0 0.0387,0 0.0387,0 0.0387,0 0.0387,0 0.0392,0 0.0387,0 0.0387,0 0.0387,0 0.0387,0 0.0387,0 0.0387,0 0.0387,0 0.0387,0 0.0387,0 0.0387,0 0.0387,0 0.0392,0 0.0387,0 0.0387,0 0.0387,0 0.0387,0 0.0387,0 0.0387,0 0.0387,0 0.0387,0 0.0387,0 0.0387,0 0.0387,0 0.0387,0 0.0392,0 0.0387,0 0.0387,0 0.0387,0 0.0387,0 0.0387,0 0.0387,0 0.0387,0 0.0387,0 0.0387,0 0.0387,0 0.0387,0 0.0387,0 0.0392,0 0.0387,0 0.0387,0 0.0387,0 0.0387,0 0.0387,0 0.0387,0 0.0387,0 0.0387,0 0.0387,0 0.0387,0 0.0387,0 0.0387,0 0.0392,0 0.0387,0 0.0387,0 0.0387,0 0.0387,0 0.0387,0 0.0387,0 0.0387,0 0.0387,0 0.0387,0 0.0387,0 0.0387,0 0.0387,0 0.0392,0 0.0387,0 0.0387,0 0.0387,0 0.0387,0 0.0387,0 0.0387,0 0.0387,0 0.0387,0 0.0387,0 0.0387,0 0.0387,0 0.0392,0 0.0387,0 0.0387,0 0.0387,0 0.0387,0 0.0387,0 0.0387,0 0.0387,0 0.0387,0 0.0387,0 0.0387,0 0.0387,0 0.0387,0 0.0392,0 0.0387,0 0.0387,0 0.0387,0 0.0387,0 0.0387,0 0.0387,0 0.0387,0 0.0387,0 0.0387,0 0.0387,0 0.0387,0 0.0387,0 0.0392,0 0.0387,0 0.0387,0 0.0387,0 0.0387,0 0.0387,0 0.0387,0 0.0387,0 0.0387,0 0.0387,0 0.0387,0 0.0387,0 0.0387,0 0.0392,0 0.0387,0 0.0387,0 0.0387,0 0.0387,0 0.0387,0 0.0387,0 0.0387,0 0.0387,0 0.0387,0 0.0387,0 0.0387,0 0.0387,0 0.0392,0 0.0387,0 0.0387,0 0.0387,0 0.0387,0 0.0387,0 0.0387,0 0.0387,0 0.0387,0 0.0387,0 0.0387,0 0.0387,0 0.0392,0 0.0387,0 0.0387,0 0.0387,0 0.0387,0 0.0387,0 0.0387,0 0.0387,0 0.0387,0 0.0387,0 0.0387,0 0.0387,0 0.0387,0 0.0392,0 0.0387,0 0.0387,0 0.0387,0 0.0387,0 0.0387,0 0.0387,0 0.0387,0 0.0387,0 0.0387,0 0.0387,0 0.0387,0 0.0387,0 0.0392,0 0.0387,0 0.0387,0 0.0387,0 0.0387,0 0.0387,0 0.0387,0" />
              </g>
            </g>
            <g
               style="fill:none;fill-rule:evenodd;stroke:#000000;stroke-width:1;stroke-linecap:square;stroke-linejoin:bevel"
               id="LinearRegionItem_1">
              <g
                 transform="translate(-61.864407,13.559322)"
                 style="font-style:normal;font-weight:400;font-size:14.66670036px;font-family:Ubuntu;fill:#0000ff;fill-opacity:0.19607801;stroke:none"
                 id="g167"
                 font-weight="400"
                 font-style="normal"
                 font-size="14.6667">
                <path
                   style="fill-rule:evenodd"
                   inkscape:connector-curvature="0"
                   id="path169"
                   vector-effect="non-scaling-stroke"
                   d="m 421.56565,364.01892 39.03093,0 0,-377.999924 -39.03093,0 0,377.999924" />
              </g>
              <g
                 style="fill:none;fill-rule:evenodd;stroke:#000000;stroke-width:1;stroke-linecap:square;stroke-linejoin:bevel"
                 id="InfiniteLine_1">
                <g
                   style="font-style:normal;font-weight:400;font-size:14.66670036px;font-family:Ubuntu;fill:none;stroke:#c8c864;stroke-width:1;stroke-linecap:square;stroke-linejoin:bevel;stroke-opacity:1"
                   id="g172"
                   font-weight="400"
                   font-style="normal"
                   font-size="14.6667">
                  <polyline
                     style="fill:none"
                     id="polyline174"
                     vector-effect="non-scaling-stroke"
                     points="359.844,0.999758447 359.844,378.999971078" />
                </g>
              </g>
              <g
                 style="fill:none;fill-rule:evenodd;stroke:#000000;stroke-width:1;stroke-linecap:square;stroke-linejoin:bevel"
                 id="InfiniteLine_2">
                <g
                   style="font-style:normal;font-weight:400;font-size:14.66670036px;font-family:Ubuntu;fill:none;stroke:#c8c864;stroke-width:1;stroke-linecap:square;stroke-linejoin:bevel;stroke-opacity:1"
                   id="g177"
                   font-weight="400"
                   font-style="normal"
                   font-size="14.6667">
                  <polyline
                     style="fill:none"
                     id="polyline179"
                     vector-effect="non-scaling-stroke"
                     points="398.875,0.999761852 398.875,378.999974483" />
                </g>
              </g>
            </g>
          </g>
        </g>
      </g>
    </g>
  </g>
</svg>
