<?xml version="1.0" encoding="UTF-8" standalone="no"?>
<!-- Created with Inkscape (http://www.inkscape.org/) -->

<svg
   xmlns:dc="http://purl.org/dc/elements/1.1/"
   xmlns:cc="http://creativecommons.org/ns#"
   xmlns:rdf="http://www.w3.org/1999/02/22-rdf-syntax-ns#"
   xmlns:svg="http://www.w3.org/2000/svg"
   xmlns="http://www.w3.org/2000/svg"
   xmlns:sodipodi="http://sodipodi.sourceforge.net/DTD/sodipodi-0.dtd"
   xmlns:inkscape="http://www.inkscape.org/namespaces/inkscape"
   width="22.033409mm"
   height="12.830578mm"
   viewBox="0 0 78.071135 45.462677"
   id="svg8518"
   version="1.1"
   inkscape:version="0.91 r13725"
   sodipodi:docname="plots.svg">
  <defs
     id="defs8520" />
  <sodipodi:namedview
     id="base"
     pagecolor="#ffffff"
     bordercolor="#666666"
     borderopacity="1.0"
     inkscape:pageopacity="0.0"
     inkscape:pageshadow="2"
     inkscape:zoom="1.979899"
     inkscape:cx="59.472883"
     inkscape:cy="12.546482"
     inkscape:document-units="px"
     inkscape:current-layer="layer1"
     showgrid="false"
     fit-margin-top="0"
     fit-margin-left="0"
     fit-margin-right="0"
     fit-margin-bottom="0"
     inkscape:window-width="865"
     inkscape:window-height="353"
     inkscape:window-x="1015"
     inkscape:window-y="514"
     inkscape:window-maximized="0" />
  <metadata
     id="metadata8523">
    <rdf:RDF>
      <cc:Work
         rdf:about="">
        <dc:format>image/svg+xml</dc:format>
        <dc:type
           rdf:resource="http://purl.org/dc/dcmitype/StillImage" />
        <dc:title></dc:title>
      </cc:Work>
    </rdf:RDF>
  </metadata>
  <g
     inkscape:label="Layer 1"
     inkscape:groupmode="layer"
     id="layer1"
     transform="translate(-299.66513,-358.81918)">
    <path
       inkscape:connector-curvature="0"
       class="st0"
       d="m 332.70106,369.99135 c -0.1,0.6 -0.1,1.2 -0.4,1.7 -0.4,0.7 -0.2,1.2 0.2,1.7 3.2,4.1 6.4,8.2 9.6,12.2 0.3,0.3 0.5,0.4 1,0.3 2.3,-0.9 4.5,-0.6 6.4,1 0.5,0.4 0.8,0.2 1.1,-0.1 5,-5.7 10.1,-11.4 15.1,-17.1 0.4,-0.4 0.5,-0.7 0.1,-1.2 -1.5,-2.6 -1.1,-5.7 1,-7.8 2,-2 5.2,-2.5 7.7,-1 2.5,1.5 3.8,4.3 3,7.2 -0.7,2.7 -3.1,4.8 -6,4.8 -0.7,0 -1.4,0 -2,-0.3 -0.6,-0.3 -1,-0.1 -1.5,0.4 -5.2,6 -10.5,11.9 -15.8,17.9 -0.4,0.4 -0.5,0.8 -0.4,1.3 0.6,4.1 -2.9,7.8 -7,7.3 -4.4,-0.5 -7,-5.1 -5.1,-9.1 0.3,-0.7 0.2,-1.2 -0.2,-1.7 -3.2,-4 -6.3,-7.9 -9.3,-12 -0.4,-0.5 -0.6,-0.6 -1.3,-0.3 -1.7,0.8 -3.4,0.7 -5.1,0 -0.7,-0.3 -0.8,-0.2 -1.2,0.4 -3.8,5.7 -7.6,11.4 -11.4,17.1 -0.4,0.6 -0.3,0.9 0.1,1.4 1.8,2.4 1.7,5.5 -0.2,7.8 -1.7,2.2 -4.8,3 -7.4,1.9 -2.7,-1.1 -4.3,-3.9 -4,-6.7 0.3,-2.8 2.5,-5.1 5.3,-5.5 0.8,-0.1 1.6,-0.1 2.4,0 0.5,0.1 0.6,0.1 0.9,-0.4 4.1,-6.1 8,-12.1 12.2,-18.1 0.3,-0.5 0.2,-0.8 0,-1.3 -1,-2.5 -0.6,-4.9 1.2,-6.9 1.8,-1.9 4.1,-2.5 6.6,-1.8 2.7,0.8 4.1,2.7 4.5,5.4 -0.1,0.5 0,1 -0.1,1.5 z m -11.1,-1.3 c -0.4,2.6 1.6,5.1 4.2,5.3 2.6,0.2 5.1,-1.6 5.3,-4.2 0.4,-2.6 -1.6,-5.1 -4.2,-5.3 -2.6,-0.3 -5,1.6 -5.3,4.2 z m 50.4,-8.3 c -2.6,-0.3 -5,1.6 -5.3,4.2 -0.3,2.6 1.6,5 4.2,5.3 2.6,0.3 5,-1.6 5.3,-4.2 0.2,-2.5 -1.7,-4.9 -4.2,-5.3 z m -21.7,32 c 0.3,-2.6 -1.7,-5 -4.4,-5.3 -2.6,-0.3 -5.1,1.7 -5.3,4.3 -0.3,2.6 1.7,5 4.4,5.3 2.6,0.2 5,-1.8 5.3,-4.3 z m -39.5,6 c 0.3,-2.6 -1.6,-5.1 -4.2,-5.3 -2.6,-0.3 -5,1.6 -5.3,4.2 -0.4,2.6 1.6,5 4.2,5.3 2.6,0.3 5,-1.6 5.3,-4.2 z"
       id="path245" />
  </g>
</svg>
